<svg width="310" height="350" viewBox="0 0 310 350" fill="none" xmlns="http://www.w3.org/2000/svg">
<g clip-path="url(#clip0_117_1186)">
<path d="M169.59 304.01C169.12 304.01 168.64 304.03 168.21 304.09C168.54 305.64 168.72 307.25 168.72 308.91C168.72 312.08 168.07 315.11 166.9 317.87H181.86C181.92 317.38 181.95 316.87 181.95 316.36C181.95 309.54 176.42 304.02 169.61 304.02L169.59 304.01ZM145.2 299.34C139.92 299.34 135.63 303.62 135.63 308.91C135.63 314.2 139.92 318.48 145.2 318.48C150.48 318.48 154.77 314.19 154.77 308.91C154.77 303.63 150.48 299.34 145.2 299.34ZM169.59 304.01C169.12 304.01 168.64 304.03 168.21 304.09C168.54 305.64 168.72 307.25 168.72 308.91C168.72 312.08 168.07 315.11 166.9 317.87H181.86C181.92 317.38 181.95 316.87 181.95 316.36C181.95 309.54 176.42 304.02 169.61 304.02L169.59 304.01ZM145.2 299.34C139.92 299.34 135.63 303.62 135.63 308.91C135.63 314.2 139.92 318.48 145.2 318.48C150.48 318.48 154.77 314.19 154.77 308.91C154.77 303.63 150.48 299.34 145.2 299.34ZM169.59 304.01C169.12 304.01 168.64 304.03 168.21 304.09C168.54 305.64 168.72 307.25 168.72 308.91C168.72 312.08 168.07 315.11 166.9 317.87H181.86C181.92 317.38 181.95 316.87 181.95 316.36C181.95 309.54 176.42 304.02 169.61 304.02L169.59 304.01ZM145.2 299.34C139.92 299.34 135.63 303.62 135.63 308.91C135.63 314.2 139.92 318.48 145.2 318.48C150.48 318.48 154.77 314.19 154.77 308.91C154.77 303.63 150.48 299.34 145.2 299.34ZM169.59 304.01C169.12 304.01 168.64 304.03 168.21 304.09C168.54 305.64 168.72 307.25 168.72 308.91C168.72 312.08 168.07 315.11 166.9 317.87H181.86C181.92 317.38 181.95 316.87 181.95 316.36C181.95 309.54 176.42 304.02 169.61 304.02L169.59 304.01ZM145.2 299.34C139.92 299.34 135.63 303.62 135.63 308.91C135.63 314.2 139.92 318.48 145.2 318.48C150.48 318.48 154.77 314.19 154.77 308.91C154.77 303.63 150.48 299.34 145.2 299.34ZM169.59 304.01C169.12 304.01 168.64 304.03 168.21 304.09C168.54 305.64 168.72 307.25 168.72 308.91C168.72 312.08 168.07 315.11 166.9 317.87H181.86C181.92 317.38 181.95 316.87 181.95 316.36C181.95 309.54 176.42 304.02 169.61 304.02L169.59 304.01ZM145.2 299.34C139.92 299.34 135.63 303.62 135.63 308.91C135.63 314.2 139.92 318.48 145.2 318.48C150.48 318.48 154.77 314.19 154.77 308.91C154.77 303.63 150.48 299.34 145.2 299.34ZM169.59 304.01C169.12 304.01 168.64 304.03 168.21 304.09C168.54 305.64 168.72 307.25 168.72 308.91C168.72 312.08 168.07 315.11 166.9 317.87H181.86C181.92 317.38 181.95 316.87 181.95 316.36C181.95 309.54 176.42 304.02 169.61 304.02L169.59 304.01ZM145.2 299.34C139.92 299.34 135.63 303.62 135.63 308.91C135.63 314.2 139.92 318.48 145.2 318.48C150.48 318.48 154.77 314.19 154.77 308.91C154.77 303.63 150.48 299.34 145.2 299.34ZM169.59 304.01C169.12 304.01 168.64 304.03 168.21 304.09C168.54 305.64 168.72 307.25 168.72 308.91C168.72 312.08 168.07 315.11 166.9 317.87H181.86C181.92 317.38 181.95 316.87 181.95 316.36C181.95 309.54 176.42 304.02 169.61 304.02L169.59 304.01ZM145.2 299.34C139.92 299.34 135.63 303.62 135.63 308.91C135.63 314.2 139.92 318.48 145.2 318.48C150.48 318.48 154.77 314.19 154.77 308.91C154.77 303.63 150.48 299.34 145.2 299.34ZM169.59 304.01C169.12 304.01 168.64 304.03 168.21 304.09C168.54 305.64 168.72 307.25 168.72 308.91C168.72 312.08 168.07 315.11 166.9 317.87H181.86C181.92 317.38 181.95 316.87 181.95 316.36C181.95 309.54 176.42 304.02 169.61 304.02L169.59 304.01ZM145.2 299.34C139.92 299.34 135.63 303.62 135.63 308.91C135.63 314.2 139.92 318.48 145.2 318.48C150.48 318.48 154.77 314.19 154.77 308.91C154.77 303.63 150.48 299.34 145.2 299.34ZM166.89 317.86H181.85C181.91 317.37 181.94 316.86 181.94 316.35C181.94 309.53 176.42 304.01 169.6 304.01C169.13 304.01 168.65 304.03 168.22 304.09C168.55 305.64 168.73 307.25 168.73 308.91C168.73 312.08 168.08 315.11 166.91 317.87L166.89 317.86ZM145.2 299.34C139.92 299.34 135.63 303.62 135.63 308.91C135.63 314.2 139.92 318.48 145.2 318.48C150.48 318.48 154.77 314.19 154.77 308.91C154.77 303.63 150.48 299.34 145.2 299.34ZM309.13 283H291.3C290.11 283 288.91 283.05 287.74 283.14C274.81 284.05 263.26 289.96 255 298.93V283.01H237.26C237.63 281.82 237.82 280.56 237.82 279.25C237.82 272.18 232.09 266.45 225.04 266.45C217.99 266.45 212.24 272.18 212.24 279.25C212.24 284.35 215.22 288.75 219.54 290.8C212.72 293.83 206.79 298.47 202.23 304.24C199.51 295.89 193.86 288.87 186.49 284.37C187.17 282.8 187.55 281.08 187.55 279.26C187.55 272.19 181.82 266.48 174.75 266.48C167.68 266.48 161.97 272.2 161.97 279.26C161.97 282.86 163.46 286.11 165.85 288.42C160.25 283.95 153.14 281.27 145.43 281.22C145.35 281.22 145.26 281.21 145.18 281.21V277.63C144.9 277.61 144.62 277.61 144.32 277.61C134.12 277.61 125.17 282.85 119.97 290.78C115.87 286.03 110.06 282.8 103.47 282.07C102.51 281.97 101.57 281.91 100.6 281.91H88.27V296.08H72.84L57.31 311.94C57.5 310.58 57.6 309.2 57.6 307.79C57.6 291.12 44.01 277.62 27.24 277.62C20.74 277.62 14.7 279.66 9.76997 283.12L11.91 285.86C4.70997 290.73 -0.0300293 298.96 -0.0300293 308.28C-0.0300293 317.6 5.15997 326.59 12.95 331.35L0.439971 344.13L55.71 344.11L58.82 340.95H64.67L99.85 305.11C101.46 305.45 102.67 306.87 102.67 308.56C102.67 309.47 102.32 310.31 101.75 310.93H101.76C80.19 333.11 72.33 341.19 69.49 344.13H100.04L115.58 328.7L119.52 324.78C119.89 324.37 120.25 323.96 120.6 323.52C123.48 327.57 128.54 332.16 131.89 333L124.97 340.07L121 344.13H146.62L149.65 341.04L150.62 340.05H196.03V336.11H214.7V331.96C214.69 331.8 214.69 331.65 214.69 331.49C214.69 331.32 214.69 331.14 214.7 330.97C214.71 330.63 214.72 330.29 214.74 329.97C215.46 319.62 223.44 311.27 233.62 310V336.12H269.64C269.6 336.49 269.58 336.86 269.58 337.25C269.58 344.32 275.3 350.05 282.36 350.05C289.42 350.05 295.15 344.32 295.15 337.25C295.15 336.87 295.14 336.5 295.09 336.12H309.1V283.04L309.13 283ZM165.77 279.24C165.77 274.27 169.81 270.24 174.77 270.24C179.73 270.24 183.77 274.27 183.77 279.24C183.77 284.21 179.74 288.24 174.77 288.24C169.8 288.24 165.77 284.21 165.77 279.24ZM10.59 339.44L19.28 330.56C10.4 327.33 4.06997 318.86 4.06997 308.91C4.06997 296.17 14.46 285.84 27.27 285.84C40.08 285.84 50.49 296.17 50.49 308.91C50.49 315.02 48.09 320.57 44.19 324.71H44.23L29.81 339.44H10.59ZM116.23 323.32L114.77 324.78L114.69 324.85L97.85 341.58H77.59L90.57 328.54C90.57 328.54 105.62 312.74 105.62 312.73C106.67 311.46 107.29 309.84 107.29 308.07C107.29 304.07 104.13 300.82 100.16 300.7C100.08 300.69 99.99 300.69 99.91 300.69C99.83 300.69 99.74 300.69 99.66 300.7H92.54L54.5 339.44H35.37L73.32 300.7H92.54V286.1H99.83C100.67 286.1 101.5 286.15 102.32 286.24C113.43 287.48 122.06 296.9 122.06 308.33C122.06 314.1 119.85 319.37 116.24 323.32H116.23ZM233.63 306.07C221.6 307.58 212.18 317.46 211.4 329.71C211.35 330.26 211.33 330.81 211.33 331.38C211.33 331.56 211.33 331.75 211.34 331.93H155.38L149.01 338.45L148.03 339.44H128.81L137.5 330.56C128.62 327.33 122.29 318.86 122.29 308.91C122.29 296.17 132.68 285.84 145.49 285.84C156.64 285.84 165.97 293.66 168.2 304.09L173.07 289.34C184.89 291.97 194.07 301.58 196.06 313.62V313.64C196.78 316.88 197.15 320.27 197.15 323.72C197.15 324.73 197.12 325.75 197.04 326.74C199.71 308.16 214.8 293.6 233.62 291.73V306.07H233.63ZM225.06 288.24C220.09 288.24 216.06 284.21 216.06 279.24C216.06 274.27 220.09 270.24 225.06 270.24C230.03 270.24 234.06 274.27 234.06 279.24C234.06 284.21 230.02 288.24 225.06 288.24ZM265.57 331.6C265.57 331.71 265.57 331.83 265.58 331.93H237.35V286.75H251.3V328.94C253.31 309.58 268.51 294.14 287.75 291.77V306.17C275.22 307.87 265.57 318.61 265.57 331.6ZM282.38 346.21C277.41 346.21 273.38 342.18 273.38 337.21C273.38 332.24 277.41 328.21 282.38 328.21C287.35 328.21 291.38 332.24 291.38 337.21C291.38 342.18 287.35 346.21 282.38 346.21ZM282.38 327.95C277.41 327.95 273.38 323.92 273.38 318.95C273.38 313.98 277.41 309.95 282.38 309.95C287.35 309.95 291.38 313.98 291.38 318.95C291.38 323.92 287.35 327.95 282.38 327.95ZM305.74 331.93H291.77V286.75H305.74V331.93ZM145.2 299.34C139.92 299.34 135.63 303.62 135.63 308.91C135.63 314.2 139.92 318.48 145.2 318.48C150.48 318.48 154.77 314.19 154.77 308.91C154.77 303.63 150.48 299.34 145.2 299.34ZM169.59 304.01C169.12 304.01 168.64 304.03 168.21 304.09C168.54 305.64 168.72 307.25 168.72 308.91C168.72 312.08 168.07 315.11 166.9 317.87H181.86C181.92 317.38 181.95 316.87 181.95 316.36C181.95 309.54 176.42 304.02 169.61 304.02L169.59 304.01ZM145.2 299.34C139.92 299.34 135.63 303.62 135.63 308.91C135.63 314.2 139.92 318.48 145.2 318.48C150.48 318.48 154.77 314.19 154.77 308.91C154.77 303.63 150.48 299.34 145.2 299.34ZM169.59 304.01C169.12 304.01 168.64 304.03 168.21 304.09C168.54 305.64 168.72 307.25 168.72 308.91C168.72 312.08 168.07 315.11 166.9 317.87H181.86C181.92 317.38 181.95 316.87 181.95 316.36C181.95 309.54 176.42 304.02 169.61 304.02L169.59 304.01ZM145.2 299.34C139.92 299.34 135.63 303.62 135.63 308.91C135.63 314.2 139.92 318.48 145.2 318.48C150.48 318.48 154.77 314.19 154.77 308.91C154.77 303.63 150.48 299.34 145.2 299.34ZM169.59 304.01C169.12 304.01 168.64 304.03 168.21 304.09C168.54 305.64 168.72 307.25 168.72 308.91C168.72 312.08 168.07 315.11 166.9 317.87H181.86C181.92 317.38 181.95 316.87 181.95 316.36C181.95 309.54 176.42 304.02 169.61 304.02L169.59 304.01ZM145.2 299.34C139.92 299.34 135.63 303.62 135.63 308.91C135.63 314.2 139.92 318.48 145.2 318.48C150.48 318.48 154.77 314.19 154.77 308.91C154.77 303.63 150.48 299.34 145.2 299.34ZM169.59 304.01C169.12 304.01 168.64 304.03 168.21 304.09C168.54 305.64 168.72 307.25 168.72 308.91C168.72 312.08 168.07 315.11 166.9 317.87H181.86C181.92 317.38 181.95 316.87 181.95 316.36C181.95 309.54 176.42 304.02 169.61 304.02L169.59 304.01ZM145.2 299.34C139.92 299.34 135.63 303.62 135.63 308.91C135.63 314.2 139.92 318.48 145.2 318.48C150.48 318.48 154.77 314.19 154.77 308.91C154.77 303.63 150.48 299.34 145.2 299.34ZM169.59 304.01C169.12 304.01 168.64 304.03 168.21 304.09C168.54 305.64 168.72 307.25 168.72 308.91C168.72 312.08 168.07 315.11 166.9 317.87H181.86C181.92 317.38 181.95 316.87 181.95 316.36C181.95 309.54 176.42 304.02 169.61 304.02L169.59 304.01ZM145.2 299.34C139.92 299.34 135.63 303.62 135.63 308.91C135.63 314.2 139.92 318.48 145.2 318.48C150.48 318.48 154.77 314.19 154.77 308.91C154.77 303.63 150.48 299.34 145.2 299.34ZM169.59 304.01C169.12 304.01 168.64 304.03 168.21 304.09C168.54 305.64 168.72 307.25 168.72 308.91C168.72 312.08 168.07 315.11 166.9 317.87H181.86C181.92 317.38 181.95 316.87 181.95 316.36C181.95 309.54 176.42 304.02 169.61 304.02L169.59 304.01ZM145.2 299.34C139.92 299.34 135.63 303.62 135.63 308.91C135.63 314.2 139.92 318.48 145.2 318.48C150.48 318.48 154.77 314.19 154.77 308.91C154.77 303.63 150.48 299.34 145.2 299.34ZM169.59 304.01C169.12 304.01 168.64 304.03 168.21 304.09C168.54 305.64 168.72 307.25 168.72 308.91C168.72 312.08 168.07 315.11 166.9 317.87H181.86C181.92 317.38 181.95 316.87 181.95 316.36C181.95 309.54 176.42 304.02 169.61 304.02L169.59 304.01ZM145.2 299.34C139.92 299.34 135.63 303.62 135.63 308.91C135.63 314.2 139.92 318.48 145.2 318.48C150.48 318.48 154.77 314.19 154.77 308.91C154.77 303.63 150.48 299.34 145.2 299.34ZM169.59 304.01C169.12 304.01 168.64 304.03 168.21 304.09C168.54 305.64 168.72 307.25 168.72 308.91C168.72 312.08 168.07 315.11 166.9 317.87H181.86C181.92 317.38 181.95 316.87 181.95 316.36C181.95 309.54 176.42 304.02 169.61 304.02L169.59 304.01Z" fill="#120847"/>
<path d="M36.54 308.91C36.54 314.19 32.25 318.48 26.97 318.48C21.69 318.48 17.4 314.19 17.4 308.91C17.4 303.63 21.69 299.34 26.97 299.34C32.25 299.34 36.54 303.62 36.54 308.91Z" fill="#120847"/>
<path d="M154.77 246.24L154.63 246.2C110.56 235.02 43.92 178.25 43.92 118.15V20.02L44.23 19.87C44.63 19.67 85.18 0.0100098 154.76 0.0100098C224.34 0.0100098 264.89 19.68 265.29 19.87L265.6 20.02V118.16C265.6 178.28 198.97 235.04 154.89 246.21L154.75 246.25L154.77 246.24ZM45.05 20.72V118.16C45.05 177.67 111.03 233.9 154.77 245.08C198.51 233.92 264.49 177.69 264.49 118.16V20.72C260.59 18.9 220.85 1.12001 154.77 1.12001C88.69 1.12001 48.94 18.9 45.05 20.72ZM154.77 235.1L154.63 235.06C114.59 224.91 54.05 173.28 54.05 118.6V29.36L54.36 29.21C54.72 29.03 91.5 11.15 154.77 11.15C218.04 11.15 254.81 29.03 255.18 29.21L255.49 29.36V118.61C255.49 173.3 194.95 224.92 154.91 235.07L154.77 235.11V235.1ZM55.18 30.06V118.61C55.18 172.7 115.07 223.79 154.77 233.94C194.47 223.8 254.36 172.71 254.36 118.61V30.06C250.66 28.33 214.66 12.26 154.77 12.26C94.8801 12.26 58.87 28.33 55.18 30.06Z" fill="#120847"/>
<path d="M154.77 3.84992C222.96 3.84992 261.71 22.5399 261.71 22.5399V118C261.71 176.67 196.61 231.58 154.77 242.18C112.92 231.57 47.83 176.68 47.83 118V22.5299C47.83 22.5299 86.58 3.84992 154.77 3.84992ZM154.77 0.919922C86.69 0.919922 48.17 19.1199 46.56 19.8999L44.9 20.6999V118C44.9 177.72 110.59 234 154.04 245.01L154.76 245.19L155.48 245.01C198.93 234 264.62 177.73 264.62 118V20.6999L262.97 19.8999C261.36 19.1299 222.83 0.919922 154.76 0.919922H154.77Z" fill="#120847"/>
<path d="M183.49 42.8601C159.74 41.6701 139.88 51.5601 124.57 65.5801C123.89 66.2101 123.23 66.8301 122.57 67.4701C122.07 67.9301 121.59 68.4201 121.11 68.8901C98.79 91.0601 87.12 121.57 88.37 135.81C75.96 128.01 65.59 123.1 65.59 123.1C65.59 123.1 73.49 82.0601 112.44 54.7401C134.89 38.9901 157.88 35.1401 172.59 35.1101C179.43 35.1101 184.6 35.9801 188.11 36.6201C187.91 36.7301 185.87 37.8601 184.14 41.4501" fill="#120847"/>
<path d="M191.32 36.98C197.86 31.71 202.46 31.61 206.03 32.66C207.8 33.47 206.49 35.12 202.87 42.03C222.38 63.57 223.43 62.87 220.27 70.68C220.06 71.25 220.16 71.81 220.45 72.2C230.62 88.43 235.67 96.48 239.08 102.01C240.51 104.73 241.42 106.39 241.97 107.52C242.8 109.23 242.8 110 242.58 112.52C241.98 119.31 238.93 119.69 234.39 123.86C228.88 128.92 227.85 132.26 225.07 131.23C223.07 130.49 224.81 128.2 221.73 125.13C219.31 123.18 216.98 121.63 215.15 123.11C213.51 124.46 216.55 127.39 218.04 129.12C219.63 130.98 221.62 132.89 220.27 134.3C219.01 135.62 217.35 134.24 215.54 133.38C213.78 132.56 212.39 132.16 209.22 132.1C208.59 132.09 207.7 132.02 207.13 132.03C206.12 132.03 204.88 131.44 204.29 130.59C203.32 129.2 203.49 127.53 204.44 126.15C204.71 125.76 204.66 125.16 204.32 124.86C199.84 120.953 195.85 117.513 192.35 114.54C186.76 116.69 184.12 114.18 181.75 112.14C180.69 111.24 179.37 110.103 177.79 108.73C175.05 106.11 173.85 104.79 172.58 103.21C161.16 113.68 158.82 124.93 167.87 139C177.62 154.15 174.9 190.07 152.51 213.46C148.12 204.3 135.51 178.83 118.92 160.24C111.52 151.95 101.33 144.29 91.93 138.14L91.95 138.09C88.53 115.09 126.23 41.09 185.26 46.3C186.18 42.86 189.01 39.43 190.36 37.93" fill="#120847"/>
<path d="M191.85 157.04C191.85 177.13 183.35 196.61 154.11 216.8C177.7 193.84 181.03 154.11 172.35 140.09C164.93 128.09 162 118.01 172.56 107.82C173.34 108.78 174.62 110.08 175.89 111.27C169.83 117.92 191.87 138.59 191.85 157.05V157.04Z" fill="#120847"/>
</g>
<defs>
<clipPath id="clip0_117_1186">
<rect width="309.13" height="350" fill="white"/>
</clipPath>
</defs>
</svg>
