<svg width="512" height="512" viewBox="0 0 512 512" fill="none" xmlns="http://www.w3.org/2000/svg">
<path d="M205.912 306.993L247.605 264.13C251.981 259.64 250.459 255.996 244.17 255.996H184.653L226.364 213.139C230.714 208.641 239.322 205.005 245.593 205.005H293.792C300.053 205.005 308.644 201.362 313.002 196.867L346.811 162.135C351.17 157.633 349.657 154.001 343.395 154.001H224.334C218.091 154.001 209.473 157.634 205.096 162.135L156.345 212.285L132.948 164.18C130.184 158.58 122.88 154 116.628 154H68.4369C62.1853 154 59.3254 158.564 62.0784 164.2L109.07 260.863L22.4753 349.865C18.114 354.36 19.6699 357.999 25.9306 357.999H74.1131C80.3802 357.999 88.9987 354.359 93.3465 349.865L132.694 309.422L151.352 347.816C154.079 353.442 161.401 358 167.645 358H215.816C222.069 358 230.714 354.36 235.036 349.865L268.836 315.13C273.222 310.647 271.69 306.995 265.42 306.995H205.912V306.993ZM284.658 298.869L318.476 264.129C322.843 259.639 331.443 255.995 337.704 255.995H385.894C392.129 255.995 393.678 259.638 389.311 264.129L355.538 298.869C351.17 303.357 342.562 306.993 336.291 306.993H288.092C281.839 306.993 280.308 303.357 284.658 298.869ZM383.874 196.866L417.646 162.135C422.014 157.632 430.641 154 436.911 154H485.074C491.345 154 492.885 157.633 488.508 162.135L454.708 196.866C450.35 201.361 441.732 205.004 435.507 205.004H387.317C381.046 205.004 379.497 201.361 383.874 196.866ZM263.426 247.861L297.199 213.138C301.558 208.64 310.184 205.004 316.473 205.004H364.627C370.888 205.004 372.447 208.641 368.079 213.138L334.252 247.861C329.902 252.349 321.285 255.995 315.059 255.995H266.861C260.59 255.996 259.077 252.349 263.426 247.861Z" fill="url(#paint0_linear_1446_39)"/>
<defs>
<linearGradient id="paint0_linear_1446_39" x1="20.0849" y1="255.94" x2="491.118" y2="255.94" gradientUnits="userSpaceOnUse">
<stop stop-color="#ED1C24"/>
<stop offset="1" stop-color="#FDB913"/>
</linearGradient>
</defs>
</svg>
