<?xml version="1.0" encoding="UTF-8"?>
<svg id="Layer_2" data-name="Layer 2" xmlns="http://www.w3.org/2000/svg" xmlns:xlink="http://www.w3.org/1999/xlink" viewBox="0 0 1423.03 244.07">
  <defs>
    <style>
      .cls-1 {
        fill: url(#linear-gradient);
      }

      .cls-2 {
        fill: url(#linear-gradient-2);
      }
    </style>
    <linearGradient id="linear-gradient" x1="903.26" y1="134.23" x2="1423.03" y2="134.23" gradientTransform="translate(0 265.7) scale(1 -1)" gradientUnits="userSpaceOnUse">
      <stop offset="0" stop-color="#ed1c24"/>
      <stop offset="1" stop-color="#fdb913"/>
    </linearGradient>
    <linearGradient id="linear-gradient-2" x1="437.66" y1="33.86" x2="889.11" y2="33.86" gradientTransform="translate(9.07) skewX(-15)" xlink:href="#linear-gradient"/>
  </defs>
  <g id="Layer_1-2" data-name="Layer 1">
    <g>
      <path class="cls-1" d="M1108.42,187.76l46.01-47.32c4.83-4.96,3.15-8.98-3.79-8.98h-65.68l46.03-47.31c4.8-4.97,14.3-8.98,21.22-8.98h53.19c6.91,0,16.39-4.02,21.2-8.98l37.31-38.34c4.81-4.97,3.14-8.98-3.77-8.98h-131.39c-6.89,0-16.4,4.01-21.23,8.98l-53.8,55.36-25.82-53.1c-3.05-6.18-11.11-11.24-18.01-11.24h-53.18c-6.9,0-10.05,5.04-7.02,11.26l51.86,106.71-95.56,98.25c-4.81,4.96-3.1,8.98,3.81,8.98h53.17c6.92,0,16.43-4.02,21.22-8.98l43.42-44.65,20.59,42.39c3.01,6.21,11.09,11.24,17.98,11.24h53.16c6.9,0,16.44-4.02,21.21-8.98l37.3-38.35c4.84-4.95,3.15-8.98-3.77-8.98h-65.67Zm86.9-8.97l37.32-38.35c4.82-4.96,14.31-8.98,21.22-8.98h53.18c6.88,0,8.59,4.02,3.77,8.98l-37.27,38.35c-4.82,4.96-14.32,8.97-21.24,8.97h-53.19c-6.9,0-8.59-4.01-3.79-8.97Zm109.49-112.6l37.27-38.34c4.82-4.97,14.34-8.98,21.26-8.98h53.15c6.92,0,8.62,4.01,3.79,8.98l-37.3,38.34c-4.81,4.96-14.32,8.98-21.19,8.98h-53.18c-6.92,0-8.63-4.02-3.8-8.98Zm-132.92,56.3l37.27-38.33c4.81-4.97,14.33-8.98,21.27-8.98h53.14c6.91,0,8.63,4.01,3.81,8.98l-37.33,38.33c-4.8,4.95-14.31,8.98-21.18,8.98h-53.19c-6.92,0-8.59-4.03-3.79-8.98Z"/>
      <path d="M130.47,59.53h-9.4s3.19-6.87,3.19-6.87c1.46-3.13-.16-5.65-3.59-5.65h-18.77c-3.76,.17-7.15,2.35-8.91,5.67l-3.19,6.85h-9.39c-24.16,0-52.93,19.63-64.19,43.79l-11.71,25.02c-11.25,24.17-.77,43.79,23.38,43.79h9.39l-3.2,6.85c-1.44,3.13,.16,5.67,3.61,5.67h18.77c3.47,0,7.46-2.54,8.91-5.68l3.21-6.84h9.39c24.16,0,52.94-19.62,64.19-43.79l11.69-25.02c11.25-24.16,.78-43.79-23.37-43.79ZM48.97,147.1h-1.73c-11.13,0-15.96-9.05-10.77-20.18l10.37-22.2c5.18-11.14,18.45-20.18,29.55-20.18h1.72l-29.15,62.56Zm72.94-42.38l-10.38,22.2c-5.17,11.13-18.43,20.18-29.57,20.18h-1.71l29.16-62.57h0s1.72,0,1.72,0c11.13,0,15.95,9.04,10.78,20.18Zm139.74,42.36l14.58-31.27c9.68-20.73,.68-37.54-20.04-37.54h-31.27c-20.72,0-45.38,16.81-55.03,37.54l-14.59,31.27c-9.67,20.72-.69,37.53,20.02,37.53h31.28c20.72,0,45.38-16.81,55.05-37.53Zm-17.68-29.16l-12.62,27.05c-3.75,8.07-13.37,14.63-21.44,14.63h-14.54c-8.08,0-11.58-6.56-7.82-14.63l12.63-27.05c3.75-8.06,13.37-14.63,21.43-14.63h14.56c8.07,0,11.58,6.57,7.8,14.63Zm140.47-39.65h-15.64c-8.18,0-16.95,2.61-25.18,7.04h-.01s.66-1.36,.66-1.36c1.46-3.13-.17-5.68-3.61-5.68h-18.76c-1.85,.09-3.65,.67-5.21,1.66-1.56,1-2.84,2.38-3.71,4.02l-64.71,138.79c-1.46,3.13,.16,5.66,3.62,5.66h18.75c3.45,0,7.46-2.53,8.93-5.67l21.05-45.15c4.09,4.42,10.43,7.04,18.6,7.04h15.65c20.7,0,45.36-16.81,55.03-37.53l14.57-31.27c9.66-20.73,.69-37.55-20.01-37.55Zm-12.23,39.65l-12.63,27.05c-3.75,8.07-13.35,14.63-21.42,14.63h-14.55c-8.07,0-11.56-6.56-7.8-14.63l12.62-27.05c3.77-8.06,13.35-14.63,21.43-14.63h14.53c8.09,0,11.57,6.57,7.82,14.63Zm196.77-39.63h-28.15c-3.91,.22-7.58,1.95-10.23,4.84l-56.64,69.12,9.69-67.76c.15-.78,.11-1.57-.1-2.33-.21-.76-.59-1.46-1.11-2.05-.52-.59-1.15-1.06-1.87-1.37-.72-.31-1.5-.46-2.28-.44h-28.16c-1.85,.09-3.65,.66-5.21,1.65-1.56,.99-2.84,2.38-3.71,4.02l-44.29,94.99c-1.47,3.13,.16,5.68,3.59,5.68h18.77c3.46,0,7.43-2.54,8.92-5.68l28.9-61.99-8.79,61.46c-.27,1.58,.16,3.19,1.22,4.39,.51,.6,1.16,1.07,1.88,1.38,.72,.31,1.51,.46,2.29,.43h9.38c3.43,0,8.02-2.17,10.2-4.85l54.12-66.04-30.41,65.21c-1.48,3.13,.15,5.68,3.6,5.68h18.76c3.46,0,7.45-2.54,8.92-5.68l44.31-95.01c1.45-3.13-.16-5.66-3.62-5.66Zm131.37,0h-18.77c-1.92,.1-3.8,.61-5.52,1.48-1.72,.87-3.24,2.08-4.46,3.57l-54.68,74.17h-.01c-5.04-3.03-7.94-8.96-6.98-15.75l8.17-57.26c.49-3.43-1.92-6.2-5.35-6.2h-18.76c-1.73,.04-3.39,.68-4.69,1.81-1.31,1.13-2.18,2.68-2.47,4.39l-9.2,64.43c-2.26,15.7,6.51,29.05,20.66,33.84l-1.87,2.52c-7.36,10-21.76,18.12-32.12,18.12h-6.75c-3.47,0-7.47,2.53-8.92,5.66l-6.37,13.69c-1.47,3.15,.16,5.68,3.6,5.68h12.5c20.76,0,49.53-16.23,64.28-36.23l80.23-108.86c2.05-2.79,.92-5.04-2.52-5.04Zm115.7,0h-43.79c-20.71,0-49.01,16.37-63.16,36.53l-45.38,64.69c-1.97,2.82-.79,5.12,2.65,5.12h18.77c3.45,0,7.88-2.3,9.85-5.12l40.66-57.94c7.05-10.08,21.22-18.27,31.56-18.27h12.16l-35.27,75.66c-1.48,3.13,.15,5.67,3.59,5.67h18.77c3.44,0,7.44-2.54,8.91-5.68l44.32-95.01c1.46-3.13-.18-5.66-3.64-5.66Zm87.58,0h-53.15c-3.77,.18-7.15,2.34-8.94,5.67l-3.43,7.41c-1.46,3.14,.17,5.69,3.61,5.69h46.91c6.91,0,9.89,5.6,6.67,12.5l-4.38,9.39h-40.65c-13.8,0-30.26,11.2-36.69,25.02l-7.28,15.64c-6.45,13.8-.48,25.02,13.35,25.02h18.77c8.17,0,16.95-2.61,25.18-7.03l-.64,1.37c-1.47,3.13,.15,5.67,3.58,5.67h18.78c3.47,0,7.45-2.54,8.92-5.68l29.43-63.14c9.66-20.73,.67-37.53-20.04-37.53Zm-30.28,78.34c-2.38,5.11-8.42,9.23-13.53,9.23h-15.94c-5.1,0-7.28-4.12-4.92-9.23l4.52-9.68c2.37-5.1,8.43-9.23,13.52-9.23h25.19l-8.84,18.92Z"/>
      <path class="cls-2" d="M436.52,38.11c2.67-9.98,12.02-15.78,25.24-16.35l14.34-.67,1.48-3.04c.41-.81,.59-1.47,.78-2.19,1.17-4.37-1.38-7.08-7.32-7.08s-10.59,2.8-12.67,7.03h-10.17c4.08-9.36,14.17-15.82,26.01-15.82,11.17,0,16.93,5.99,14.62,14.59-.41,1.52-.97,3.09-1.45,4.18l-15.51,32.36h-9.84l2.91-6.08h-.14c-4.36,4.23-10.37,6.94-16.54,6.94-8.55,0-13.9-5.75-11.73-13.88Zm33.57-4.51l2.49-5.04-12.66,.62c-6.92,.29-11.71,3.09-12.92,7.6-1.11,4.13,1.74,6.8,6.88,6.8,6.56,0,13.32-4.13,16.22-9.98ZM506,1h21c9.27,0,13.63,4.28,11.71,11.45-1.58,5.89-7.39,10.74-14.26,11.88l-.33,.71c5.45,.76,8.04,4.42,6.65,9.6-2.66,9.93-12.88,16.49-25.52,16.49h-23.33L506,1Zm-3.21,27.94l-6.99,14.4h11.64c6.37,0,11.33-3.28,12.64-8.17,1.13-4.23-1.09-6.23-6.98-6.23h-10.31Zm9.74-20.2l-6.18,12.78h9.5c6.04,0,10.84-3.04,12.06-7.6,.94-3.52-.8-5.18-5.5-5.18h-9.88Zm75.03,.71h-15.4l-20.05,41.68h-10.26l20.1-41.68h-15.4l3.93-8.46h41.06l-3.98,8.46Zm44.09,12.78c-4.53,16.92-19.31,29.84-34.37,29.84-13.12,0-19.21-8.84-15.63-22.19,4.53-16.92,19.32-29.89,34.43-29.89,13.07,0,19.16,8.84,15.57,22.24Zm-10.39,.29c2.19-8.17-.79-13.54-7.78-13.54-9.22,0-18.3,8.89-21.45,20.62-2.19,8.17,.8,13.5,7.79,13.5,9.22,0,18.3-8.89,21.43-20.58Zm40.47,41.72l6.32-13.12h-40.96L651.16,1h10.22l-20.04,41.63h21.95L683.38,1h10.26l-20.09,41.63h7.75l-10.26,21.62h-9.31Zm30.22-34.41c4.46-16.63,18.45-29.84,33.42-29.84,12.64,0,18.47,8.22,14.97,21.29-.6,2.23-1.47,4.94-2.46,7.22h-35.59c-.2,.57-.35,1.14-.49,1.66-2.18,8.13,.91,13.26,7.9,13.26,6.22,0,11.48-3.14,14.78-7.98h9.84c-5.19,9.6-15.98,16.73-27.2,16.73-13.73,0-18.69-9.17-15.16-22.34Zm38.42-8.79c.15-.38,.3-.95,.42-1.38,1.54-5.75-.32-11.02-7.98-11.02-7.18,0-13.59,5.32-17.34,12.4h24.9ZM759.55,1h10.26l-9.64,20.01h22.38l9.59-20.01h10.31l-24.08,50.13h-10.22l10.42-21.67h-22.38l-10.42,21.67h-10.31L759.55,1Zm86.07,8.46h-15.4l-20.05,41.68h-10.27l20.1-41.68h-15.4l3.93-8.46h41.06l-3.98,8.46Zm-21.98,58.26L855.67,1h9.93l-3.75,7.79h.19c4.58-5.23,11.58-8.65,18.05-8.65,11.17,0,15.85,8.22,12.43,21-4.75,17.73-18.96,30.84-33.07,30.84-7.65,0-12.56-4.37-12.84-10.6h-.24l-12.66,26.33h-10.08Zm58.39-45.33c2.22-8.27-.62-13.31-7.6-13.31-9.88,0-18.87,9.93-21.86,21.1-2,7.46,1.21,12.69,8.34,12.69,8.84,0,17.96-8.7,21.12-20.48Z"/>
    </g>
  </g>
</svg>