<svg width="1424" height="226" viewBox="0 0 1424 226" fill="none" xmlns="http://www.w3.org/2000/svg">
<g clip-path="url(#clip0_1437_24)">
<path d="M1108.42 168.913L1154.43 121.595C1159.26 116.638 1157.58 112.616 1150.64 112.616H1084.96L1130.99 65.3036C1135.79 60.3386 1145.29 56.3246 1152.21 56.3246H1205.4C1212.31 56.3246 1221.79 52.3026 1226.6 47.3406L1263.91 8.99955C1268.72 4.02955 1267.05 0.0195561 1260.14 0.0195561H1128.75C1121.86 0.0195561 1112.35 4.03055 1107.52 8.99955L1053.72 64.3616L1027.9 11.2566C1024.85 5.07455 1016.79 0.0185547 1009.89 0.0185547H956.709C949.81 0.0185547 946.654 5.05655 949.692 11.2786L1001.55 117.988L905.988 216.24C901.175 221.203 902.892 225.22 909.801 225.22H962.973C969.889 225.22 979.4 221.202 984.198 216.24L1027.62 171.594L1048.21 213.979C1051.22 220.189 1059.3 225.221 1066.19 225.221H1119.35C1126.25 225.221 1135.79 221.203 1140.56 216.241L1177.86 177.895C1182.7 172.946 1181.01 168.915 1174.09 168.915H1108.42V168.913ZM1195.32 159.944L1232.64 121.594C1237.46 116.637 1246.95 112.615 1253.86 112.615H1307.04C1313.92 112.615 1315.63 116.636 1310.81 121.594L1273.54 159.944C1268.72 164.899 1259.22 168.913 1252.3 168.913H1199.11C1192.21 168.913 1190.52 164.899 1195.32 159.944ZM1304.81 47.3396L1342.08 8.99855C1346.9 4.02855 1356.42 0.0185547 1363.34 0.0185547H1416.49C1423.41 0.0185547 1425.11 4.02955 1420.28 8.99855L1382.98 47.3396C1378.17 52.3016 1368.66 56.3236 1361.79 56.3236H1308.61C1301.69 56.3236 1299.98 52.3016 1304.81 47.3396ZM1171.89 103.635L1209.16 65.3026C1213.97 60.3376 1223.49 56.3236 1230.43 56.3236H1283.57C1290.48 56.3236 1292.2 60.3386 1287.38 65.3026L1250.05 103.635C1245.25 108.589 1235.74 112.615 1228.87 112.615H1175.68C1168.76 112.616 1167.09 108.589 1171.89 103.635Z" fill="url(#paint0_linear_1437_24)"/>
<path d="M130.474 40.6791H121.077V40.6641L124.271 33.8111C125.73 30.6851 124.111 28.1631 120.677 28.1631H101.904C98.1431 28.3381 94.7571 30.5121 92.9931 33.8301L89.8021 40.6791H80.4161C56.2561 40.6791 27.4861 60.3091 16.2271 84.4661L4.51909 109.487C-6.7299 133.653 3.7471 153.276 27.8991 153.276H37.2891L34.0911 160.126C32.6461 163.255 34.2511 165.792 37.6991 165.792H56.4651C59.9391 165.792 63.9281 163.255 65.3721 160.114L68.5811 153.276H77.9681C102.132 153.276 130.906 133.653 142.158 109.487L153.846 84.4661C165.098 60.3091 154.623 40.6791 130.474 40.6791ZM48.9731 128.256H47.2461C36.1131 128.256 31.2861 119.206 36.4801 108.077L46.8471 85.8771C52.0231 74.7421 65.2971 65.7001 76.4001 65.7001H78.1211L48.9731 128.256ZM121.915 85.8781L111.538 108.078C106.365 119.207 93.1061 128.257 81.9661 128.257H80.2571L109.418 65.6901V65.7001H111.139C122.267 65.7001 127.088 74.7421 121.915 85.8781ZM261.659 128.237L276.237 96.9711C285.914 76.2411 276.919 59.4271 256.2 59.4271H224.933C204.217 59.4271 179.553 76.2411 169.901 96.9711L155.313 128.237C145.646 148.961 154.624 165.77 175.331 165.77H206.612C227.328 165.77 251.996 148.96 261.659 128.237ZM243.982 99.0791L231.365 126.129C227.619 134.196 217.996 140.76 209.927 140.76H195.386C187.306 140.76 183.807 134.196 187.561 126.129L200.193 99.0791C203.945 91.0181 213.558 84.4481 221.623 84.4481H236.179C244.254 84.4481 247.756 91.0181 243.982 99.0791ZM384.449 59.4271H368.808C360.63 59.4271 351.86 62.0371 343.628 66.4691L343.613 66.4811L344.274 65.1091C345.733 61.9801 344.107 59.4281 340.663 59.4281H321.9C320.049 59.5224 318.254 60.0954 316.691 61.0912C315.127 62.087 313.849 63.4714 312.981 65.1091L248.27 203.902C246.814 207.031 248.429 209.557 251.889 209.557H270.64C274.088 209.557 278.096 207.031 279.569 203.884L300.615 158.729C304.706 163.153 311.044 165.771 319.218 165.771H334.866C355.563 165.771 380.224 148.961 389.894 128.238L404.464 96.9721C414.125 76.2411 405.152 59.4271 384.449 59.4271ZM372.215 99.0791L359.584 126.129C355.831 134.196 346.233 140.76 338.161 140.76H323.613C315.54 140.76 312.055 134.196 315.812 126.129L328.433 99.0791C332.201 91.0181 341.787 84.4481 349.867 84.4481H364.398C372.484 84.4481 375.969 91.0181 372.215 99.0791ZM568.981 59.4491H540.828C536.916 59.6646 533.244 61.4038 530.599 64.2941L473.963 133.413L483.658 65.6481C483.803 64.8728 483.77 64.0745 483.56 63.314C483.351 62.5535 482.971 61.8508 482.449 61.2591C481.934 60.6674 481.294 60.1978 480.575 59.8845C479.856 59.5712 479.077 59.4221 478.293 59.4481H450.137C448.285 59.535 446.489 60.104 444.924 61.0986C443.36 62.0933 442.083 63.4792 441.219 65.1191L396.928 160.113C395.462 163.242 397.088 165.791 400.521 165.791H419.291C422.751 165.791 426.725 163.254 428.213 160.113L457.117 98.1281L448.325 159.588C448.056 161.166 448.489 162.776 449.544 163.977C450.059 164.573 450.702 165.046 451.425 165.36C452.147 165.674 452.932 165.821 453.719 165.791H463.102C466.536 165.791 471.121 163.62 473.298 160.945L527.421 94.9011L497.014 160.113C495.537 163.242 497.166 165.791 500.615 165.791H519.373C522.837 165.791 526.818 163.254 528.289 160.113L572.598 65.1071C574.044 61.9791 572.443 59.4491 568.981 59.4491ZM700.35 59.4491H681.583C679.661 59.5541 677.782 60.0564 676.064 60.9242C674.346 61.7921 672.827 63.0066 671.602 64.4911L616.922 138.663H616.911C611.866 135.636 608.972 129.704 609.931 122.909L618.105 65.6491C618.599 62.2181 616.188 59.4491 612.755 59.4491H593.997C592.27 59.4911 590.611 60.1326 589.304 61.2638C587.998 62.395 587.126 63.9454 586.838 65.6491L577.641 130.082C575.383 145.778 584.152 159.128 598.302 163.919L596.429 166.439C589.067 176.434 574.671 184.555 564.305 184.555H557.553C554.083 184.555 550.083 187.085 548.632 190.21L542.265 203.901C540.795 207.047 542.426 209.582 545.862 209.582H558.363C579.118 209.582 607.892 193.357 622.64 173.349L702.87 64.4911C704.923 61.7031 703.792 59.4491 700.35 59.4491ZM816.054 59.4491H772.267C751.56 59.4491 723.261 75.8201 709.105 95.9831L663.726 160.674C661.759 163.489 662.938 165.791 666.379 165.791H685.149C688.598 165.791 693.026 163.489 694.997 160.674L735.655 102.735C742.704 92.6581 756.871 84.4661 767.217 84.4661H779.38L744.112 160.126C742.632 163.255 744.258 165.792 747.707 165.792H766.473C769.914 165.792 773.917 163.255 775.379 160.114L819.696 65.1081C821.151 61.9791 819.52 59.4491 816.054 59.4491ZM903.631 59.4491H850.483C846.709 59.6271 843.329 61.7901 841.543 65.1201L838.109 72.5341C836.646 75.6701 838.276 78.2191 841.724 78.2191H888.639C895.546 78.2191 898.527 83.8191 895.307 90.7201L890.927 100.114H850.273C836.471 100.114 820.018 111.316 813.579 125.132L806.302 140.768C799.855 154.573 805.823 165.792 819.652 165.792H838.419C846.586 165.792 855.37 163.178 863.599 158.758L862.96 160.126C861.489 163.255 863.109 165.792 866.543 165.792H885.319C888.786 165.792 892.771 163.255 894.234 160.114L923.669 96.9781C933.331 76.2511 924.339 59.4491 903.631 59.4491ZM873.35 137.791C870.973 142.9 864.926 147.025 859.819 147.025H843.874C838.777 147.025 836.597 142.9 838.959 137.791L843.474 128.106C845.841 123.002 851.907 118.873 856.992 118.873H882.186L873.35 137.791Z" fill="black"/>
</g>
<defs>
<linearGradient id="paint0_linear_1437_24" x1="903.35" y1="112.554" x2="1423.16" y2="112.554" gradientUnits="userSpaceOnUse">
<stop stop-color="#ED1C24"/>
<stop offset="1" stop-color="#FDB913"/>
</linearGradient>
<clipPath id="clip0_1437_24">
<rect width="1424" height="226" fill="white"/>
</clipPath>
</defs>
</svg>
