
<svg xmlns="http://www.w3.org/2000/svg" version="1.1" xmlns:xlink="http://www.w3.org/1999/xlink" preserveAspectRatio="none" x="0px" y="0px" width="600px" height="200px" viewBox="0 0 600 200">
<defs/>

<g id="_______70">
<g id="_____1" transform="matrix( 3.213653564453125, 0, 0, 3.213653564453125, 805.6,96.25) ">
<g id="_____1" transform="matrix( 1, 0, 0, 1, -153.95,-0.25) ">
<g>
<g>
<g>
<path fill="#444444" stroke="none" d="
M 31.05 22.3
Q 34 19.35 34 15.05 34 10.75 31.05 7.8 28.1 4.85 23.85 4.85 19.6 4.85 16.65 7.8 13.7 10.75 13.7 15.05 13.7 19.35 16.65 22.3 19.6 25.25 23.85 25.25 28.1 25.25 31.05 22.3
M 23.85 8.6
Q 26.55 8.6 28.35 10.45 30.15 12.25 30.15 15.05 30.15 17.85 28.35 19.65 26.55 21.45 23.85 21.45 21.15 21.45 19.35 19.65 17.5 17.85 17.5 15.05 17.5 12.25 19.35 10.45 21.15 8.6 23.85 8.6
M -32.55 21.3
L -24.75 21.3 -23.6 24.85 -19.4 24.85 -26.25 5.25 -31.05 5.25 -37.9 24.85 -33.75 24.85 -32.55 21.3
M -31.35 17.7
L -28.65 9.7 -25.95 17.7 -31.35 17.7
M -5.5 6.8
Q -7.25 5.25 -9.75 5.25
L -17.5 5.25 -17.5 24.85 -9.15 24.85
Q -6.6 24.85 -4.8 23.25 -3.05 21.65 -3.05 19.15 -3.05 16.15 -5.65 14.7 -3.8 13.2 -3.8 10.75 -3.8 8.35 -5.5 6.8
M -8.25 9.5
Q -7.65 10.1 -7.65 11 -7.65 11.95 -8.25 12.55 -8.85 13.15 -9.75 13.15
L -13.6 13.15 -13.6 8.85 -9.75 8.85
Q -8.85 8.85 -8.25 9.5
M -13.6 21.25
L -13.6 16.6 -9.15 16.6
Q -8.2 16.6 -7.55 17.3 -6.9 17.95 -6.9 18.9 -6.9 19.95 -7.55 20.6 -8.2 21.25 -9.15 21.25
L -13.6 21.25
M -2 5.25
L -2 8.95 3.3 8.95 3.3 24.85 7.15 24.85 7.15 8.95 12.45 8.95 12.45 5.25 -2 5.25
M -7.25 -19.1
Q -7.25 -21.8 -9.2 -23.7 -11.1 -25.6 -13.8 -25.6
L -21.65 -25.6 -21.65 -6 -17.75 -6 -17.75 -12.8 -14.8 -12.8 -10.85 -6 -6.7 -6 -11.05 -13.4
Q -9.35 -14.2 -8.3 -15.75 -7.25 -17.3 -7.25 -19.1
M -11.15 -19.1
Q -11.15 -17.9 -11.9 -17.05 -12.7 -16.2 -13.8 -16.2
L -17.75 -16.2 -17.75 -22 -13.8 -22
Q -12.7 -22 -11.9 -21.15 -11.15 -20.3 -11.15 -19.1
M -24.5 -25.6
L -36.2 -25.6 -36.2 -6 -32.3 -6 -32.3 -13.55 -24.7 -13.55 -24.7 -17.25 -32.3 -17.25 -32.3 -21.9 -24.5 -21.9 -24.5 -25.6
M 47.1 -23.05
Q 44.15 -20.1 44.15 -15.8 44.15 -11.5 47.1 -8.55 50.05 -5.6 54.3 -5.6 58.55 -5.6 61.5 -8.55 64.45 -11.5 64.45 -15.8 64.45 -20.1 61.5 -23.05 58.55 -26 54.3 -26 50.05 -26 47.1 -23.05
M 58.8 -20.4
Q 60.6 -18.6 60.6 -15.8 60.6 -13 58.8 -11.2 57 -9.4 54.3 -9.4 51.6 -9.4 49.8 -11.2 47.95 -13 47.95 -15.8 47.95 -18.6 49.8 -20.4 51.6 -22.25 54.3 -22.25 57 -22.25 58.8 -20.4
M 71.2 -25.6
L 67.2 -25.6 67.2 -6 71.1 -6 71.1 -18.7 76.6 -9.6 77.05 -9.6 82.55 -18.7 82.55 -6 86.4 -6 86.4 -25.6 82.4 -25.6 76.85 -16.35 71.2 -25.6
M 14.3 -9.7
L 14.3 -14.1 21.7 -14.1 21.7 -17.75 14.3 -17.75 14.3 -21.9 22.4 -21.9 22.4 -25.6 10.4 -25.6 10.4 -6 22.55 -6 22.55 -9.7 14.3 -9.7
M 7.7 -6
L 7.7 -9.7 -0.55 -9.7 -0.55 -14.1 6.85 -14.1 6.85 -17.75 -0.55 -17.75 -0.55 -21.9 7.55 -21.9 7.55 -25.6 -4.45 -25.6 -4.45 -6 7.7 -6
M 40.35 -25.6
L 27.4 -25.6 27.4 -16.35
Q 27.4 -11.95 25.75 -9.7
L 23.85 -9.7 23.85 -2.25 27.75 -2.25 27.75 -6 38.55 -6 38.55 -2.25 42.45 -2.25 42.45 -9.7 40.35 -9.7 40.35 -25.6
M 31.25 -22
L 36.45 -22 36.45 -9.7 29.9 -9.7
Q 31.25 -12 31.25 -16.3
L 31.25 -22 Z"/>
</g>
</g>
</g>

<g id="_____1" transform="matrix( 1.08013916015625, 0, 0, 1.08013916015625, -67.8,1.8) ">
<g>
<g>
<g>
<path fill="#339933" stroke="none" d="
M -14.7 -19.95
Q -17.1 -19.95 -18.75 -19.25 -20.7 -18.4 -20.7 -16.8 -20.7 -15.35 -19.15 -14 -17.7 -12.75 -15.85 -12.35
L -18.85 -9.45
Q -21.05 -7.6 -22.45 -4.4 -23.85 -1.4 -23.85 1.35
L -23.85 11.55
Q -23.85 15.25 -21.25 18.05
L -21.25 21.95
Q -21.25 23.75 -20 24.95 -18.65 26.2 -16.85 26.2
L -11.65 26.2
Q -9.85 26.2 -8.6 24.95 -7.3 23.75 -7.3 21.95
L -7.3 20.95 16.1 20.95 16.1 16.45 3.95 16.45
Q 2.05 16.45 0.7 15.1 -0.7 13.75 -0.7 11.85
L 16.1 11.85 16.1 8.65 2.9 8.65
Q 0.8 8.65 -0.7 6.45 -2.15 4.2 -2.15 1.05
L 16.1 1.05 16.1 -11.3 -11.05 -11.3 -1.6 -20.5
Q -0.85 -21.1 0.3 -21.55 1.35 -21.95 2.05 -21.95
L 16.7 -22 16.7 -26.15 1.65 -26.15 1.65 -26.1
Q 0.3 -26.05 -1.3 -25.4 -3.15 -24.65 -4.2 -23.55
L -11.45 -16.6
Q -11.45 -18.05 -12 -18.8 -12.8 -19.95 -14.7 -19.95
M -19.25 -3.45
Q -17.95 -4.8 -16.1 -4.8 -14.1 -4.8 -10 -2.2 -5.75 0.6 -5.75 2.4 -5.75 4 -10 4.35 -10.35 4.35 -16.1 4.35 -17.95 4.35 -19.25 3 -20.55 1.65 -20.55 -0.25 -20.55 -2.1 -19.25 -3.45
M -18.25 11
L -17.65 9.95 -9.15 9.95 -3.5 16.45 -13.95 16.45
Q -15.85 15.9 -17.05 15 -17.5 14.65 -17.85 14.15 -18.15 13.75 -18.3 13.3 -18.7 12.25 -18.25 11 Z"/>
</g>
</g>
</g>
</g>
</g>
</g>
</g>

<g id="_______75"/>

<g id="_______43"/>
</svg>
